PathFileType	4	(X/Y/Z)	OpenSim_Sub01_CSBaseline_Gyro.trc
DataRate	CameraRate	NumFrames	NumMarkers	Units	OrigDataRate	OrigDataStartFrame	OrigNumFrames
100	100	30	8	m	100	2976	5950
Frame#	Time	torso_imu_offset_imu	pelvis_imu_offset_imu	tibia_r_imu_offset_imu	femur_r_imu_offset_imu	tibia_l_imu_offset_imu	femur_l_imu_offset_imu	toes_r_imu_offset_imu	toes_l_imu_offset_imu
				X1	Y1	Z1	X2	Y2	Z2	X3	Y3	Z3	X4	Y4	Z4	X5	Y5	Z5	X6	Y6	Z6	X7	Y7	Z7	X8		Y8	Z8	

2976	29.75000000	-0.03430600	0.36378481	-0.16774759	-0.34950242	-0.03222064	-0.29379084	-1.51892285	0.02113445	-2.39984886	-0.62811960	0.88253894	0.90897046	-2.20199192	0.36538971	1.72053802	-1.45440185	0.00982335	-0.65465803	-0.25787568	-4.75688079	-0.56621941	-0.70133723	-1.06692794	0.30862540
2977	29.76000000	-0.02826382	0.33666259	-0.16219438	-0.34436750	-0.13871071	-0.25948618	-1.62410733	0.01731642	-2.45609805	-0.69036312	0.95951767	1.08302653	-1.99951293	0.16663061	1.73311600	-1.72325250	-0.31908479	-0.75422311	-0.11744505	-5.40191266	-0.77435183	-0.57194864	-0.76567976	0.22220798
2978	29.77000000	-0.03876818	0.30638343	-0.15472003	-0.39724068	-0.23821726	-0.21536729	-1.62985939	-0.00017079	-2.49030201	-0.79644393	0.99518288	1.26506926	-1.59729294	-0.09017489	1.71105199	-1.86606893	-0.68550552	-0.46490167	0.00588806	-5.85900026	-1.00977581	-0.38969995	-0.59426121	0.20656804
2979	29.78000000	-0.07408402	0.28181114	-0.14443479	-0.50846384	-0.27173789	-0.16767641	-1.50558446	-0.05513270	-2.51291486	-0.96256653	0.99359699	1.46525418	-1.01007029	-0.19203669	1.59290112	-1.74833509	-0.92280968	0.20172030	0.08127234	-5.95293764	-1.18590048	-0.29868360	-0.42136360	0.21131641
2980	29.79000000	-0.13465059	0.26049995	-0.13314762	-0.64608392	-0.23589890	-0.12866774	-1.24539571	-0.15303170	-2.51976982	-1.15867045	0.95071839	1.67790444	-0.32991257	-0.15857853	1.41124194	-1.31964534	-0.99119559	0.98301218	0.05622245	-5.73502535	-1.28066797	-0.30249711	-0.23201871	0.21475510
2981	29.80000000	-0.21627372	0.23334706	-0.12426533	-0.75918303	-0.16010823	-0.11410221	-0.85814556	-0.28842483	-2.49808105	-1.32747826	0.85779103	1.88798475	0.30551390	-0.14628526	1.25393448	-0.57976040	-0.92576218	1.46917698	-0.13420082	-5.39004996	-1.31017547	-0.32198695	-0.07978113	0.21212157
2982	29.81000000	-0.31115196	0.19433347	-0.12243931	-0.81513574	-0.06648702	-0.13131256	-0.38743325	-0.43795144	-2.43632996	-1.42765126	0.72008670	2.07648269	0.76249302	-0.23527601	1.16985117	0.35523056	-0.77937222	1.44704046	-0.48957669	-5.07469191	-1.30883193	-0.30521510	0.00461205	0.20081481
2983	29.82000000	-0.40356871	0.14451292	-0.13505183	-0.82267900	0.04004760	-0.16872475	0.04603767	-0.53858615	-2.32607410	-1.45419925	0.57431297	2.21578177	0.91743770	-0.33133065	1.11927840	1.11112498	-0.64236423	1.14639046	-0.86328966	-4.87906982	-1.35080441	-0.26335510	0.04331186	0.18256834
2984	29.83000000	-0.47760365	0.08628223	-0.16881867	-0.79597336	0.15585217	-0.21228549	0.32110961	-0.52806775	-2.16073840	-1.40753589	0.45780600	2.28121481	0.66852480	-0.32834387	1.05456795	1.31857332	-0.59828114	0.84161402	-1.09911471	-4.84852705	-1.49842449	-0.21550350	0.06374088	0.15998451
2985	29.84000000	-0.52628981	0.02602390	-0.21976000	-0.74739360	0.26640032	-0.24875639	0.41964123	-0.40742964	-1.94872869	-1.29308877	0.37047976	2.29058104	0.12446564	-0.24103852	0.96989899	1.01887278	-0.60816258	0.64877017	-1.14583401	-4.65914158	-1.63630241	-0.17439327	0.07386683	0.13858027
2986	29.85000000	-0.54796400	-0.02753808	-0.27758188	-0.68824372	0.35076664	-0.26539381	0.38421740	-0.21512979	-1.70727433	-1.11928325	0.29021928	2.28664095	-0.48205395	-0.15525489	0.88410705	0.49526614	-0.56111518	0.59034518	-1.01419414	-3.77098876	-1.54485020	-0.14897924	0.07020150	0.12557506
2987	29.86000000	-0.54566149	-0.06773168	-0.33099013	-0.62614394	0.39246167	-0.25242560	0.24805733	-0.00794882	-1.45065300	-0.90302876	0.20482377	2.29305295	-0.96538049	-0.12283906	0.81220145	-0.03243607	-0.41682507	0.65205633	-0.71908081	-2.03228140	-1.14045892	-0.14307307	0.05365936	0.12460858
2988	29.87000000	-0.53274803	-0.09253099	-0.36664087	-0.56052601	0.38507825	-0.20669558	0.02173176	0.11752917	-1.18630205	-0.68007849	0.12484898	2.29013374	-1.24837777	-0.11773598	0.75994311	-0.49293500	-0.29453480	0.74027797	-0.28282826	-0.16350030	-0.64593032	-0.14911966	0.03530873	0.13128405
2989	29.88000000	-0.52300383	-0.10126681	-0.37230078	-0.49032817	0.32573970	-0.12702576	-0.27896958	0.07487104	-0.91701425	-0.48581720	0.06289698	2.25544239	-1.27714450	-0.10626561	0.73109797	-0.83794962	-0.32004810	0.76031777	0.25897447	1.06559252	-0.30419972	-0.15842265	0.02667639	0.14046144
2990	29.89000000	-0.52005793	-0.10078645	-0.35006484	-0.42083201	0.23393340	-0.02341888	-0.55274151	-0.06196206	-0.60718859	-0.32550454	0.02090769	2.19861150	-1.08606574	-0.08484685	0.72175519	-1.04937705	-0.46402756	0.71730168	0.74430586	1.59490504	-0.13804302	-0.16638164	0.02983845	0.15055286
2991	29.90000000	-0.52155499	-0.10235252	-0.31047766	-0.36104223	0.14229778	0.08753837	-0.64816054	-0.12479062	-0.19880035	-0.18663383	-0.00546412	2.14811050	-0.76161058	-0.06763550	0.72347563	-1.12693435	-0.60581972	0.67512876	0.93725461	1.78262501	-0.04053914	-0.17081379	0.04129094	0.16205569
2992	29.91000000	-0.52598155	-0.11325781	-0.26350236	-0.31595153	0.07462603	0.19174311	-0.48337375	-0.03020843	0.31844004	-0.05771902	-0.01959829	2.11468226	-0.39088788	-0.06481460	0.72788009	-1.07405178	-0.66788745	0.67423128	0.74905714	1.91022194	0.05764062	-0.16981441	0.05646667	0.17329777
2993	29.92000000	-0.53387505	-0.13180997	-0.21756092	-0.28149333	0.03459596	0.28082428	-0.13320418	0.11332157	0.84766550	0.06993631	-0.02253939	2.06897363	-0.06093207	-0.07719139	0.72685374	-0.90193090	-0.67153096	0.70098571	0.42140672	2.07592366	0.13820598	-0.16202976	0.06858690	0.17770597
2994	29.93000000	-0.54571666	-0.15494574	-0.18036697	-0.25253724	0.02255921	0.34774442	0.30207777	0.18235169	1.28659575	0.20313553	-0.01561338	1.97972574	0.14544862	-0.10337790	0.71321204	-0.62672788	-0.64959861	0.73484607	0.21700318	2.34436823	0.17506456	-0.14650679	0.07111578	0.16893827
2995	29.94000000	-0.55854121	-0.17799991	-0.15447416	-0.22562497	0.03262740	0.39122729	0.67834608	0.16675001	1.62674846	0.33303544	-0.00631305	1.85201386	0.18897101	-0.13242040	0.68900542	-0.30489290	-0.61609547	0.75930896	0.15381036	2.68938740	0.18396894	-0.12565922	0.06311373	0.14988449
2996	29.95000000	-0.56735776	-0.19537209	-0.13938666	-0.19828142	0.05523509	0.41339743	0.82603088	0.12318287	1.91493881	0.44160979	-0.00574327	1.71230529	0.05626836	-0.14776203	0.66172272	-0.01647397	-0.57390764	0.76030797	0.10565158	3.03137691	0.20529803	-0.10387983	0.04694568	0.12886801
2997	29.96000000	-0.56869978	-0.20353721	-0.13343933	-0.16735746	0.08165718	0.41684419	0.66608593	0.09816362	2.19058037	0.52079311	-0.01953195	1.57819872	-0.21503835	-0.14129115	0.63687253	0.19495188	-0.52525517	0.73484504	-0.00451409	3.31862752	0.26704500	-0.08406287	0.02565272	0.11157607
2998	29.97000000	-0.56256060	-0.20362781	-0.13244588	-0.12817166	0.10514967	0.40509599	0.32218126	0.11362509	2.47497711	0.58500998	-0.04098233	1.44688758	-0.47430823	-0.12390120	0.61538806	0.36786461	-0.47119264	0.70454815	-0.13993570	3.56321228	0.36885692	-0.06570189	0.00368926	0.09765745
2999	29.98000000	-0.54940752	-0.19751312	-0.13205842	-0.07655468	0.11974529	0.38226256	-0.05819590	0.18402738	2.78408996	0.64930313	-0.06226618	1.31331188	-0.56841152	-0.10825472	0.59805163	0.54610190	-0.41362319	0.69201397	-0.25123124	3.78372861	0.50568807	-0.04800175	-0.01447730	0.08617469
3000	29.99000000	-0.52976815	-0.18816130	-0.12978253	-0.01576399	0.12472783	0.35714338	-0.36484369	0.28102048	3.10401707	0.70368144	-0.08109033	1.17765137	-0.47639635	-0.09873059	0.59047871	0.71419092	-0.36483838	0.69544001	-0.31757099	3.97703457	0.66364185	-0.03193742	-0.02621982	0.07857359
3001	30	-0.50420902	-0.17918377	-0.12421985	0.04656672	0.12248850	0.34127734	-0.50980757	0.35112965	3.40327223	0.72344399	-0.09842510	1.04317688	-0.25535773	-0.09481501	0.60109657	0.82178544	-0.34320005	0.69864875	-0.33502745	4.12721377	0.82362560	-0.01952419	-0.03000696	0.07769951
3002	30.01000000	-0.47399478	-0.17312178	-0.11454617	0.10385408	0.11748245	0.34046927	-0.45863117	0.36831248	3.65715263	0.69617357	-0.11487130	0.91319272	0.02196595	-0.09471270	0.62999612	0.84282579	-0.35479070	0.68932625	-0.31216125	4.22891346	0.97188645	-0.01196047	-0.02646444	0.08506328
3003	30.02000000	-0.44194673	-0.17011018	-0.10118672	0.15198450	0.11868038	0.34765074	-0.29558522	0.36846006	3.85659818	0.63728536	-0.13011128	0.79098860	0.25018256	-0.09391010	0.65858645	0.80644771	-0.37811924	0.66419397	-0.28491000	4.30071958	1.10673583	-0.00859185	-0.02099935	0.09915763
3004	30.03000000	-0.41074793	-0.16992204	-0.08482486	0.18755997	0.13441022	0.35442703	-0.11567259	0.39218172	3.99700166	0.56400356	-0.14388334	0.67935880	0.32869782	-0.08771603	0.66793929	0.74703089	-0.38932324	0.62265870	-0.28784625	4.36210032	1.22786948	-0.00842647	-0.01918324	0.11771801
3005	30.04000000	-0.37947964	-0.17195722	-0.06706375	0.21111999	0.16005645	0.35669364	0.04115366	0.44228371	4.09787470	0.47335016	-0.15778623	0.57600272	0.25206145	-0.07340249	0.66173963	0.67599148	-0.37857600	0.57922887	-0.30320880	4.40819325	1.33242239	-0.00957647	-0.02160642	0.13487833
